<svg width="400" height="400" viewBox="0 0 400 400" fill="none" xmlns="http://www.w3.org/2000/svg">
<g clip-path="url(#clip0_301_86)">
<path d="M185.384 324.276C183.372 322.264 180.38 321.336 177.561 321.909C177.006 322.013 176.459 322.186 175.939 322.403C175.41 322.62 174.907 322.889 174.439 323.201C173.962 323.513 173.52 323.877 173.121 324.276C172.723 324.674 172.358 325.117 172.046 325.594C171.734 326.062 171.465 326.565 171.249 327.094C171.032 327.614 170.867 328.16 170.754 328.716C170.641 329.271 170.581 329.843 170.581 330.407C170.581 330.97 170.642 331.543 170.754 332.098C170.867 332.653 171.031 333.2 171.249 333.72C171.466 334.249 171.734 334.752 172.046 335.22C172.359 335.698 172.723 336.14 173.121 336.538C173.52 336.937 173.963 337.302 174.439 337.613C174.907 337.926 175.41 338.195 175.939 338.411C176.459 338.628 177.006 338.802 177.561 338.905C178.116 339.018 178.688 339.079 179.252 339.079C181.541 339.079 183.77 338.151 185.384 336.538C185.783 336.139 186.147 335.697 186.468 335.22C186.781 334.752 187.049 334.249 187.266 333.72C187.483 333.2 187.647 332.654 187.76 332.098C187.873 331.544 187.925 330.971 187.925 330.407C187.924 328.126 187.005 325.888 185.384 324.276Z" fill="url(#paint0_linear_301_86)"/>
<path d="M341.422 58.5789C303.646 20.8031 253.422 0 200 0C199.844 0 199.69 0.00546875 199.534 0.00625C199.509 0.00546875 199.484 0 199.458 0C199.423 0 199.388 0.0078125 199.352 0.0078125C146.828 0.173437 97.4414 20.4594 59.9836 57.207C59.4273 57.5523 58.8953 57.943 58.4203 58.4195C57.9453 58.8945 57.5539 59.4273 57.2086 59.982C20.4594 97.4406 0.173437 146.828 0.0078125 199.352C0.0078125 199.388 0 199.423 0 199.458C0 199.484 0.00546875 199.508 0.00625 199.534C0.00625 199.69 0 199.845 0 200C0 253.422 20.8031 303.646 58.5781 341.421C96.3539 379.195 146.578 400 200 400C253.422 400 303.646 379.197 341.422 341.421C379.197 303.646 400 253.422 400 200C400 146.578 379.197 96.3539 341.422 58.5789ZM382.195 187.106C365.513 181.102 331.714 170.211 288.033 162.769C313.376 127.016 329.499 95.7125 337.154 79.5102C362.8 108.667 379.316 146.034 382.195 187.106ZM319.312 61.807C303.083 69.4789 271.832 85.5891 236.147 110.884C228.856 68.0891 218.255 34.7812 212.181 17.7609C252.98 20.4602 290.16 36.6039 319.312 61.807ZM186.71 17.8305C180.632 34.8727 170.05 68.1484 162.769 110.883C127.594 85.9484 96.725 69.9391 80.307 62.1391C109.252 36.975 146.169 20.7602 186.71 17.8305ZM62.1391 80.307C69.9398 96.725 85.95 127.595 110.883 162.769C68.1484 170.05 34.8734 180.631 17.8305 186.71C20.7602 146.168 36.975 109.252 62.1391 80.307ZM17.7602 212.182C34.782 218.256 68.0898 228.857 110.883 236.148C85.5883 271.832 69.4789 303.084 61.8055 319.313C36.6031 290.16 20.4602 252.979 17.7602 212.182ZM199.448 364.645C198.299 361.139 197.075 357.266 195.806 353.053C194.425 348.467 189.588 345.87 185.002 347.251C180.416 348.632 177.818 353.47 179.199 358.055C182.223 368.092 184.986 376.24 187.123 382.195C146.044 379.32 108.672 362.804 79.5102 337.154C95.7133 329.499 127.019 313.374 162.772 288.031C163.751 293.77 164.822 299.522 165.974 305.238C166.921 309.933 171.494 312.972 176.19 312.023C180.885 311.077 183.923 306.503 182.977 301.808C180.938 291.702 179.165 281.485 177.709 271.439C177.27 268.412 175.271 265.842 172.445 264.671C169.62 263.5 166.388 263.905 163.938 265.734C131.777 289.75 101.83 306.522 82.6758 316.239C92.3937 297.085 109.165 267.138 133.18 234.977C135.009 232.527 135.413 229.295 134.244 226.47C133.074 223.646 130.502 221.646 127.476 221.206C87.7453 215.445 54.7031 206.127 34.2898 199.453C54.6781 192.786 87.6828 183.479 127.476 177.709C130.502 177.27 133.073 175.27 134.244 172.445C135.414 169.619 135.009 166.387 133.18 163.937C109.165 131.776 92.393 101.829 82.6758 82.6758C101.83 92.3937 131.777 109.166 163.938 133.18C166.388 135.009 169.621 135.413 172.445 134.244C175.27 133.074 177.27 130.502 177.709 127.476C183.471 87.7445 192.789 54.7031 199.462 34.2898C206.13 54.6781 215.437 87.6828 221.207 127.476C221.646 130.502 223.645 133.073 226.471 134.244C229.295 135.413 232.529 135.009 234.978 133.18C267.14 109.165 297.087 92.393 316.241 82.6758C306.523 101.83 289.752 131.777 265.736 163.937C263.907 166.387 263.503 169.62 264.673 172.445C265.842 175.269 268.414 177.269 271.441 177.709C311.171 183.47 344.213 192.788 364.627 199.462C344.238 206.129 311.234 215.436 271.441 221.206C268.415 221.645 265.843 223.645 264.673 226.47C263.502 229.296 263.907 232.528 265.736 234.977C289.752 267.138 306.523 297.086 316.241 316.239C297.087 306.521 267.14 289.749 234.978 265.734C232.528 263.905 229.295 263.501 226.471 264.671C223.646 265.841 221.646 268.412 221.207 271.439C215.443 311.182 206.121 344.232 199.448 364.645ZM211.784 382.266C217.783 365.609 228.695 331.777 236.147 288.033C272.429 313.752 304.128 329.974 320.113 337.488C290.749 363.175 253.114 379.62 211.784 382.266ZM337.488 320.113C329.975 304.127 313.753 272.429 288.033 236.147C331.777 228.694 365.608 217.783 382.265 211.784C379.62 253.115 363.175 290.749 337.488 320.113Z" fill="url(#paint1_linear_301_86)"/>
<path d="M242.827 237.549C229.449 229.807 221.138 215.419 221.138 200C221.138 184.581 229.448 170.193 242.827 162.452C245.505 160.901 247.155 158.041 247.155 154.946C247.155 151.852 245.505 148.991 242.827 147.441C233.62 142.113 223.121 139.296 212.466 139.296C178.994 139.296 151.762 166.528 151.762 200.001C151.762 233.474 178.994 260.706 212.466 260.706C223.121 260.706 233.62 257.889 242.827 252.561C245.505 251.01 247.155 248.15 247.155 245.056C247.155 241.959 245.505 239.099 242.827 237.549ZM212.466 243.36C188.558 243.36 169.106 223.909 169.106 200C169.106 176.091 188.558 156.64 212.466 156.64C215.399 156.64 218.316 156.938 221.17 157.523C210.205 168.739 203.795 183.97 203.795 200C203.795 216.031 210.205 231.261 221.17 242.477C218.316 243.062 215.4 243.36 212.466 243.36Z" fill="url(#paint2_linear_301_86)"/>
</g>
<defs>
<linearGradient id="paint0_linear_301_86" x1="179.253" y1="321.742" x2="179.253" y2="339.079" gradientUnits="userSpaceOnUse">
<stop offset="0.0968749" stop-color="#79CCFB"/>
<stop offset="1" stop-color="#0057FF" stop-opacity="0.41"/>
</linearGradient>
<linearGradient id="paint1_linear_301_86" x1="200" y1="0" x2="200" y2="400" gradientUnits="userSpaceOnUse">
<stop offset="0.0968749" stop-color="#79CCFB"/>
<stop offset="1" stop-color="#0057FF" stop-opacity="0.41"/>
</linearGradient>
<linearGradient id="paint2_linear_301_86" x1="199.458" y1="139.296" x2="199.458" y2="260.706" gradientUnits="userSpaceOnUse">
<stop offset="0.0968749" stop-color="#79CCFB"/>
<stop offset="1" stop-color="#0057FF" stop-opacity="0.41"/>
</linearGradient>
<clipPath id="clip0_301_86">
<rect width="400" height="400" fill="white"/>
</clipPath>
</defs>
</svg>
