<svg width="400" height="400" viewBox="0 0 400 400" fill="none" xmlns="http://www.w3.org/2000/svg">
<g clip-path="url(#clip0_301_96)">
<path d="M189.935 40.0668C200.999 40.0668 209.968 31.0975 209.968 20.0334C209.968 8.96925 200.999 0 189.935 0C178.871 0 169.901 8.96925 169.901 20.0334C169.901 31.0975 178.871 40.0668 189.935 40.0668Z" fill="url(#paint0_linear_301_96)"/>
<path d="M296.076 40.0668C307.14 40.0668 316.109 31.0975 316.109 20.0334C316.109 8.96925 307.14 0 296.076 0C285.012 0 276.042 8.96925 276.042 20.0334C276.042 31.0975 285.012 40.0668 296.076 40.0668Z" fill="url(#paint1_linear_301_96)"/>
<path d="M355.765 38.2547C345.586 20.6254 327.357 10.1011 307 10.1011V29.9696C320.175 29.9696 331.97 36.7805 338.559 48.189C345.147 59.5994 345.147 73.2213 338.561 84.6317L274.739 195.172C268.153 206.58 256.355 213.391 243.18 213.393C230.005 213.393 218.208 206.582 211.619 195.172L147.8 84.6297C141.213 73.2213 141.213 59.5974 147.8 48.189C154.386 36.7805 166.186 29.9676 179.361 29.9676V10.0991C159.004 10.0991 140.772 20.6235 130.594 38.2547C120.415 55.886 120.415 76.9347 130.594 94.564L194.413 205.104C202.901 219.805 216.996 229.54 233.246 232.378V285.689C233.246 337.766 202.504 380.134 164.716 380.134C126.928 380.134 96.1873 337.766 96.1873 285.689V222.213C118.818 217.599 135.9 197.54 135.9 173.563C135.9 146.186 113.628 123.914 86.2511 123.914C58.8744 123.914 36.6018 146.186 36.6018 173.563C36.6018 197.538 53.6847 217.597 76.3169 222.213V285.689C76.3169 348.721 115.972 400.002 164.716 400.002C213.457 400.002 253.112 348.721 253.112 285.689V232.378C269.361 229.54 283.458 219.805 291.943 205.104L355.765 94.564C365.946 76.9347 365.946 55.884 355.765 38.2547Z" fill="url(#paint2_linear_301_96)"/>
</g>
<defs>
<linearGradient id="paint0_linear_301_96" x1="189.935" y1="0" x2="189.935" y2="40.0668" gradientUnits="userSpaceOnUse">
<stop stop-color="#398B07"/>
<stop offset="0.534375" stop-color="#7ADC62"/>
<stop offset="0.925" stop-color="#7CBA6C"/>
</linearGradient>
<linearGradient id="paint1_linear_301_96" x1="296.076" y1="0" x2="296.076" y2="40.0668" gradientUnits="userSpaceOnUse">
<stop stop-color="#398B07"/>
<stop offset="0.534375" stop-color="#7ADC62"/>
<stop offset="0.925" stop-color="#7CBA6C"/>
</linearGradient>
<linearGradient id="paint2_linear_301_96" x1="200.001" y1="10.0991" x2="200.001" y2="400.002" gradientUnits="userSpaceOnUse">
<stop offset="0.148958" stop-color="#61FF00"/>
<stop offset="0.560417" stop-color="#7ADC62"/>
<stop offset="0.982292" stop-color="#7CBA6C"/>
</linearGradient>
<clipPath id="clip0_301_96">
<rect width="400" height="400" fill="white"/>
</clipPath>
</defs>
</svg>
