<svg width="400" height="400" viewBox="0 0 400 400" fill="none" xmlns="http://www.w3.org/2000/svg">
<path d="M257.773 179.487C255.2 181.993 253.773 185.353 253.747 188.947C253.727 192.54 255.113 195.92 257.653 198.46L265.96 206.767C268.12 208.927 270.78 210.28 273.567 210.833C274.127 213.62 275.473 216.28 277.627 218.433L284.82 225.62C287.633 228.44 291.38 229.987 295.367 229.987C299.353 229.987 303.1 228.44 305.913 225.62L364.953 166.58C370.773 160.767 370.773 151.3 364.953 145.487L357.767 138.3C355.613 136.147 352.96 134.8 350.18 134.24C349.613 131.38 348.207 128.747 346.1 126.633L337.787 118.313C335.273 115.8 331.84 114.233 328.227 114.393C324.687 114.413 321.393 115.807 318.933 118.32L252.82 52.44C255.393 49.9333 256.82 46.5733 256.847 42.98C256.873 39.3867 255.48 36.0067 252.94 33.4667L244.633 25.16C242.547 23.0667 239.873 21.76 237.053 21.22C236.513 18.3867 235.153 15.68 232.967 13.4933L225.78 6.30666C220.153 0.673328 210.32 0.659995 204.68 6.30666L145.64 65.34C142.82 68.16 141.273 71.9 141.273 75.8867C141.273 79.88 142.82 83.62 145.64 86.44L152.827 93.6267C154.933 95.7333 157.56 97.1333 160.42 97.7067C160.993 100.56 162.387 103.187 164.493 105.293L172.8 113.6C175.3 116.1 178.753 117.533 182.287 117.533C182.313 117.533 182.34 117.533 182.367 117.533C185.907 117.513 189.207 116.113 191.66 113.6L202.3 124.247C204.233 126.173 204.233 129.32 202.3 131.247L153.947 179.6L149.227 174.88C141.42 167.087 128.733 167.087 120.94 174.887C113.147 182.687 113.147 195.373 120.94 203.173L125.653 207.887L65.2 268.34C61.6867 271.853 57.2733 274.353 52.44 275.567L33.0667 280.407C25.9 282.207 19.34 285.913 14.1133 291.14L11.94 293.307C4.24667 301.027 0 311.267 0 322.16C0 333.053 4.24667 343.313 11.9533 351.02L20.24 359.3C27.9533 367.007 38.2 371.253 49.0933 371.253C59.9933 371.253 70.24 367.007 77.9533 359.3L80.12 357.133C85.3467 351.913 89.06 345.353 90.8533 338.173L95.6933 318.807C96.9 313.98 99.4 309.567 102.92 306.047L163.373 245.593L168.087 250.307C175.647 257.86 188.82 257.853 196.367 250.313C200.147 246.54 202.227 241.513 202.227 236.167C202.227 230.827 200.147 225.8 196.367 222.027L191.653 217.313L240.007 168.96C241.94 167.027 245.08 167.027 247.007 168.953L257.773 179.487ZM355.993 156.033C355.993 156.333 355.913 156.767 355.533 157.153L296.493 216.193C295.727 216.96 295.02 216.96 294.26 216.193L287.067 209.007C286.447 208.387 286.447 207.387 287.067 206.767L346.107 147.727C346.413 147.42 346.82 147.267 347.227 147.267C347.633 147.267 348.04 147.42 348.347 147.727L355.533 154.913C355.913 155.293 355.993 155.733 355.993 156.033ZM154.6 75.8867C154.6 75.5867 154.68 75.1533 155.06 74.7667L214.1 15.7333C214.487 15.3467 214.92 15.2733 215.22 15.2733C215.52 15.2733 215.953 15.3533 216.34 15.7333L223.527 22.92C224.147 23.54 224.147 24.54 223.527 25.16L164.487 84.2C163.873 84.82 162.867 84.8133 162.247 84.2L155.06 77.0133C154.68 76.6267 154.6 76.1933 154.6 75.8867ZM230.587 159.527L172.807 217.313L186.947 231.453C188.207 232.713 188.9 234.387 188.9 236.167C188.9 237.953 188.207 239.62 186.947 240.88C184.433 243.407 180.04 243.407 177.52 240.88L163.373 226.74L93.4933 296.62C88.26 301.847 84.5533 308.407 82.76 315.58L77.92 334.947C76.7133 339.78 74.2133 344.187 70.6933 347.707L68.5267 349.873C63.3333 355.067 56.4267 357.927 49.0933 357.927C41.8667 357.927 34.7867 354.993 29.6667 349.88L21.3867 341.6C16.1933 336.4 13.3333 329.5 13.3333 322.16C13.3333 314.82 16.1933 307.927 21.38 302.733L23.5467 300.567C27.0733 297.047 31.4867 294.547 36.3133 293.333L55.6867 288.493C62.8667 286.693 69.42 282.987 74.64 277.767L144.527 207.887L130.38 193.747C127.78 191.147 127.78 186.913 130.38 184.313C131.68 183.02 133.387 182.367 135.093 182.367C136.8 182.367 138.507 183.02 139.813 184.313L153.953 198.453L211.733 140.673C218.86 133.553 218.86 121.947 211.733 114.82L201.093 104.173C198.573 101.653 195.227 100.267 191.667 100.267C191.64 100.267 191.607 100.267 191.58 100.267C187.987 100.287 184.627 101.72 182.233 104.173L173.927 95.8667C173.54 95.48 173.467 95.0467 173.467 94.7467C173.467 94.4467 173.547 94.0133 173.927 93.6267L232.973 34.5867C233.733 33.82 234.44 33.82 235.207 34.5867L243.513 42.8933C241 45.3467 239.607 48.6467 239.587 52.1933C239.567 55.7533 241 59.24 243.52 61.7533L309.513 127.747C312.033 130.267 315.38 131.653 318.94 131.653C318.967 131.653 318.993 131.653 319.027 131.653C322.62 131.633 325.973 130.2 328.367 127.747L336.68 136.067C337.06 136.447 337.14 136.88 337.14 137.173C337.14 137.48 337.06 137.913 336.68 138.3L277.633 197.34V197.347C277.007 197.953 276.013 197.953 275.4 197.34L267.1 189.027C269.607 186.573 271 183.28 271.02 179.733C271.04 176.18 269.613 172.687 267.093 170.167L256.447 159.52C249.307 152.407 237.713 152.407 230.587 159.527Z" fill="url(#paint0_linear_302_173)"/>
<path d="M353.333 344.593H293.333C267.6 344.593 246.667 365.533 246.667 391.26V397.927H400V391.26C400 365.527 379.067 344.593 353.333 344.593ZM260.673 384.593C263.767 369.4 277.24 357.927 293.333 357.927H353.333C369.433 357.927 382.9 369.4 385.993 384.593H260.673Z" fill="url(#paint1_linear_302_173)"/>
<path d="M280 324.593C276.32 324.593 273.333 327.573 273.333 331.26C273.333 334.947 276.32 337.927 280 337.927H366.667C370.347 337.927 373.333 334.947 373.333 331.26C373.333 327.573 370.347 324.593 366.667 324.593H280Z" fill="url(#paint2_linear_302_173)"/>
<defs>
<linearGradient id="paint0_linear_302_173" x1="184.659" y1="2.07666" x2="184.659" y2="371.253" gradientUnits="userSpaceOnUse">
<stop stop-color="#040404"/>
<stop offset="0.477083" stop-color="#363434" stop-opacity="0.93"/>
<stop offset="0.961458" stop-color="#483E3E" stop-opacity="0.93"/>
</linearGradient>
<linearGradient id="paint1_linear_302_173" x1="323.333" y1="344.593" x2="323.333" y2="397.927" gradientUnits="userSpaceOnUse">
<stop stop-color="#040404"/>
<stop offset="0.477083" stop-color="#363434" stop-opacity="0.93"/>
<stop offset="0.961458" stop-color="#483E3E" stop-opacity="0.93"/>
</linearGradient>
<linearGradient id="paint2_linear_302_173" x1="323.333" y1="324.593" x2="323.333" y2="337.927" gradientUnits="userSpaceOnUse">
<stop stop-color="#040404"/>
<stop offset="0.477083" stop-color="#363434" stop-opacity="0.93"/>
<stop offset="0.961458" stop-color="#483E3E" stop-opacity="0.93"/>
</linearGradient>
</defs>
</svg>
